<?xml version="1.0" encoding="utf-8"?>
<!-- Generator: Adobe Illustrator 24.0.1, SVG Export Plug-In . SVG Version: 6.00 Build 0)  -->
<svg version="1.1" id="Ebene_1" xmlns="http://www.w3.org/2000/svg" xmlns:xlink="http://www.w3.org/1999/xlink" x="0px" y="0px"
	 viewBox="0 0 141.7 86.9" style="enable-background:new 0 0 141.7 86.9;" xml:space="preserve">
<style type="text/css">
	.st0{fill:#FFFFFF;}
</style>
<g>
	<g>
		<polygon class="st0" points="13.7,66.4 13.7,74.2 4.9,74.2 4.9,66.4 0,66.4 0,86.9 4.9,86.9 4.9,78.7 13.7,78.7 13.7,86.9 
			18.6,86.9 18.6,66.4 18.4,66.4 		"/>
		<polygon class="st0" points="36.5,66.4 31.4,74.5 26.3,66.4 20.5,66.4 29,79.8 29,86.9 33.9,86.9 33.9,79.8 42.3,66.4 41.8,66.4 
					"/>
		<path class="st0" d="M58,66.4v15c0,0.6-0.4,1-1,1h-7.8V66.4h-4.9v20.5h14.4c1.3,0,2.3-0.4,3.1-1.1c0.7-0.8,1.1-1.8,1.1-3.1V66.4
			h-0.2H58z"/>
		<path class="st0" d="M81.8,66.4H67.4v20.5h4.9V70.8h7.8c0.6,0,1,0.5,1,1v15H86V70.6c0-1.3-0.4-2.3-1.1-3.1
			C84.1,66.8,83.1,66.4,81.8,66.4z"/>
		<path class="st0" d="M105,66.4H90.5v20.5H105c1.3,0,2.3-0.4,3.1-1.1c0.8-0.8,1.1-1.8,1.1-3.1V70.6c0-1.3-0.4-2.3-1.1-3.1
			C107.3,66.8,106.3,66.4,105,66.4z M104.3,71.9v9.5c0,0.6-0.4,1.1-1,1.1h-7.8V70.8h7.8C103.9,70.8,104.3,71.3,104.3,71.9z"/>
		<path class="st0" d="M117.7,66.4c-1.3,0-2.3,0.4-3.1,1.1c-0.8,0.8-1.1,1.8-1.1,3.1v16.3h4.9v-6.3h8.9v6.3h4.9V66.4H117.7z
			 M127.2,70.8v5.3h-8.9v-4.2c0-0.5,0.4-1,1-1H127.2z"/>
		<rect x="136.9" y="66.4" class="st0" width="4.9" height="20.5"/>
	</g>
	<g>
		<g>
			<g>
				<g>
					<path class="st0" d="M71.6,50.8c27.4,0,49.6-11.4,49.6-25.4c0-14-22.2-25.4-49.6-25.4C44.2,0,22,11.4,22,25.4
						C22,39.4,44.2,50.8,71.6,50.8z M81,38.3c-0.8,1.9-2.3,6-5.5,7.6c-1,0.5-2.2,0.7-3.3,0.8c-0.2,0-0.4,0-0.5,0
						c-9.2,0-17.7-1.3-24.8-3.4c-0.1,0-0.2-0.1-0.3-0.1c-0.7-0.2-1-0.5-1-0.9c0-0.3,0.2-0.6,0.4-0.8c0.1-0.1,0.3-0.2,0.4-0.4
						c1.7-1.4,6.6-5,16-8.5c3.3-1.3,7.4-2.8,11.7-3.7C76.6,28.3,85.9,26.9,81,38.3z M106.1,12.7c0.2-0.3,0.4-0.6,0.8-0.6
						c0.2,0,0.6,0,1,0.3c5.8,3.6,9.3,8.1,9.3,12.9c0,8.8-11.3,16.3-27.4,19.6c-1,0.2-1.7,0.2-2-0.1c-0.2-0.2-0.2-0.4,0-0.8
						c0.1-0.2,0.2-0.3,0.4-0.6c8.8-10.3,15.5-25.6,17.4-30C105.8,13.2,105.9,12.9,106.1,12.7z M62.5,12.4c0.8-1.9,2.3-6,5.5-7.6
						C69,4.3,70.2,4,71.3,4c0.2,0,0.4,0,0.5,0c9.2,0,17.7,1.3,24.8,3.4c0.1,0,0.2,0.1,0.3,0.1c0.7,0.2,1,0.5,1,0.9
						c0,0.3-0.2,0.6-0.4,0.8c-0.1,0.1-0.3,0.2-0.5,0.4c-1.6,1.4-6.6,5-16,8.5c-3.3,1.3-7.4,2.8-11.7,3.7
						C66.9,22.5,57.5,23.9,62.5,12.4z M53.5,5.8c1-0.2,1.7-0.2,2,0.1c0.1,0.2,0.2,0.4,0,0.8C55.3,6.8,55.2,7,55,7.3
						c-8.8,10.3-15.5,25.6-17.4,30c-0.1,0.3-0.3,0.6-0.4,0.8c-0.2,0.3-0.4,0.6-0.8,0.6c-0.2,0-0.6,0-1-0.3
						c-5.8-3.6-9.3-8.1-9.3-12.9C26.1,16.6,37.3,9.1,53.5,5.8z"/>
				</g>
			</g>
		</g>
	</g>
</g>
</svg>
