<?xml version="1.0" encoding="utf-8"?>
<!-- Generator: Adobe Illustrator 24.0.1, SVG Export Plug-In . SVG Version: 6.00 Build 0)  -->
<svg version="1.1" id="Ebene_1" xmlns="http://www.w3.org/2000/svg" xmlns:xlink="http://www.w3.org/1999/xlink" x="0px" y="0px"
	 viewBox="0 0 209.7 151" style="enable-background:new 0 0 209.7 151;" xml:space="preserve">
<style type="text/css">
	.st0{fill:#FFFFFF;}
</style>
<g>
	<g>
		<g>
			<g>
				<g>
					<path class="st0" d="M139.3,4.9C129.7,1.8,117.8,0,104.9,0C91.9,0,80,1.8,70.4,4.9c-25.5,8.2-43,25.2-43,44.9
						c0,27.7,34.7,50.1,77.5,50.1c42.8,0,77.5-22.4,77.5-50.1C182.3,30.1,164.8,13.1,139.3,4.9z M104.9,78.4
						C98.5,78.4,93.3,65.8,93,50c3.8,0.3,7.8,0.5,11.9,0.5c4.1,0,8.1-0.2,11.9-0.5C116.5,65.8,111.3,78.4,104.9,78.4z M93.8,37.7
						c1.7-11.1,6-18.9,11.1-18.9c5,0,9.4,7.8,11.1,18.9c-3.5,0.3-7.3,0.5-11.1,0.5C101,38.2,97.3,38,93.8,37.7z M122.7,36.9
						C120.2,19.5,113.1,7,104.9,7C96.6,7,89.6,19.5,87,36.9c-15.7-2.5-26.7-8-26.7-14.6c0-8.8,20-15.9,44.6-15.9
						c24.6,0,44.6,7.1,44.6,15.9C149.5,28.8,138.5,34.4,122.7,36.9z M38.7,48c0-8.5,3.3-16.4,9-23.3c-0.1,0.5-0.1,1-0.1,1.4
						c0,10.7,16,19.7,38.4,23.1c0,0.8,0,1.6,0,2.4c0,19.8,5.5,36.7,13.1,42.4C65.2,92,38.7,72.2,38.7,48z M110.7,94.1
						c7.6-5.8,13.1-22.6,13.1-42.4c0-0.8,0-1.6,0-2.4c22.3-3.3,38.4-12.4,38.4-23.1c0-0.5,0-1-0.1-1.4c5.7,6.8,9,14.8,9,23.3
						C171,72.2,144.5,92,110.7,94.1z"/>
				</g>
			</g>
		</g>
		<g>
			<polygon class="st0" points="30.1,115 0,115 0,121.7 11.1,121.7 11.1,150 19,150 19,121.7 30.1,121.7 			"/>
			<path class="st0" d="M50.4,114c-10.2,0-18.5,8.3-18.5,18.5c0,10.2,8.3,18.5,18.5,18.5c10.2,0,18.5-8.3,18.5-18.5
				C68.9,122.3,60.6,114,50.4,114z M59.5,138.1c-1.2,3.1-3.9,5.4-7.3,5.9c-0.6,0.1-1.2,0.2-1.8,0.2c-0.6,0-1.2-0.1-1.8-0.2
				c-3.3-0.6-6.1-2.9-7.3-5.9c-0.7-1.7-1.1-3.6-1.1-5.6c0-2,0.4-3.9,1.1-5.6c1.2-3.1,3.9-5.4,7.3-5.9c0.6-0.1,1.2-0.2,1.8-0.2
				c0.6,0,1.2,0.1,1.8,0.2c3.3,0.6,6.1,2.9,7.3,5.9c0.7,1.7,1.1,3.6,1.1,5.6C60.5,134.5,60.1,136.4,59.5,138.1z"/>
			<g>
				<polygon class="st0" points="69,115 78.3,115 87,130.1 95.6,115 104.9,115 90.9,137.1 90.9,150 83,150 83,137.1 				"/>
			</g>
			<path class="st0" d="M105,132.5c0-10.2,8.3-18.5,18.5-18.5c10.2,0,18.5,8.3,18.5,18.5c0,10.2-8.3,18.5-18.5,18.5
				C113.3,151,105,142.7,105,132.5z M123.6,144.2c0.6,0,1.2-0.1,1.8-0.2c3.3-0.6,6.1-2.9,7.3-5.9c0.7-1.7,1.1-3.6,1.1-5.6
				c0-2-0.4-3.9-1.1-5.6c-1.2-3.1-3.9-5.4-7.3-5.9c-0.6-0.1-1.2-0.2-1.8-0.2c-0.6,0-1.2,0.1-1.8,0.2c-3.3,0.6-6.1,2.9-7.3,5.9
				c-0.7,1.7-1.1,3.6-1.1,5.6c0,2,0.4,3.9,1.1,5.6c1.2,3.1,3.9,5.4,7.3,5.9C122.4,144.2,123,144.2,123.6,144.2z"/>
			<path class="st0" d="M198.1,142.3l-14.9,0l0,0l-2.9,7.7h-8.8l14.2-35h9.8l14.2,35H201L198.1,142.3L198.1,142.3z M195.8,136.1
				l-5.2-13.8l-5.2,13.8H195.8z"/>
			<polygon class="st0" points="173.9,115 143.8,115 143.8,121.7 154.9,121.7 154.9,150 162.8,150 162.8,121.7 173.9,121.7 			"/>
		</g>
	</g>
</g>
</svg>
